<svg id="Layer_1" data-name="Layer 1" xmlns="http://www.w3.org/2000/svg" viewBox="0 0 527.76 163.32"><defs><style>.cls-1{fill:#b1bcbd;}.cls-2{fill:#1a1a1a;}</style></defs><title>FRK</title><path class="cls-1" d="M243.35,567.2V403.87H346v28H274.15V471.3h66.26v28H274.15v67.9Z" transform="translate(-243.35 -403.87)"/><path class="cls-1" d="M367.94,567.2V403.87h70.93q15.4,0,26.83,5.37a41.47,41.47,0,0,1,17.74,15.16q6.3,9.81,6.3,23.1v2.8q0,14.7-7,23.8a41.19,41.19,0,0,1-17.27,13.3v4.2q9.33.47,14.47,6.42t5.13,15.74V567.2h-30.8v-49a13.74,13.74,0,0,0-2.91-9.1q-2.92-3.5-9.69-3.5H398.74v61.6Zm30.8-89.6h36.87q11,0,17.15-6t6.18-15.75v-2.33q0-9.79-6.07-15.75t-17.26-5.95H398.74Z" transform="translate(-243.35 -403.87)"/><path class="cls-2" d="M510.27,465.23V448h18.19l16.8,3,1.17-3-14-9.57L519.6,425.34l12.13-12.14L544.8,426l9.56,14,3-1.17-3-16.8v-18.2h17.27v18.2l-3,16.8,3,1.17,9.57-14,13.06-12.84,12.13,12.14L593.56,438.4l-14,9.57,1.17,3,16.8-3h18.2v17.26h-18.2l-16.8-3-1.17,3,14,9.57,12.83,13.07L594.26,500,581.2,487.17l-9.57-14-3,1.16,3,16.8v18.2H554.36v-18.2l3-16.8-3-1.16-9.56,14L531.73,500,519.6,487.87l12.83-13.07,14-9.57-1.17-3-16.8,3Z" transform="translate(-243.35 -403.87)"/><path class="cls-1" d="M641.39,567.2V403.87h30.8v64.86h4.2l53-64.86h39.43l-68.13,80.5,70.47,82.83h-40.6l-54.13-66.27h-4.2V567.2Z" transform="translate(-243.35 -403.87)"/></svg>